# xmcd
#
# Track frame offsets:
# 150
# 22947
# 48265
# 77120
# 98250
# 114540
# 136542
# 159637
#
# Disc length: 2490 seconds
#
#
# Revision: 0
# Processed by: cddbd v1.5PL3 Copyright (c) Steve Scherf et al.
# Submitted via: FreeRIP 2.70 
#
DISCID=4e09b808
DTITLE=The Original Pin Stripe Brass Band - Your Last Chance To Dance
DYEAR=1994
DGENRE=Brass Band
TTITLE0=Lord, Lord, Lord
TTITLE1=I Ate Up The Apple Tree
TTITLE2=The Second Line
TTITLE3=Last Chance To Dance
TTITLE4=It's So Hard To Say Goodbye To Yesterday
TTITLE5=Higher And Higher
TTITLE6=Together
TTITLE7=Glory, Glory
EXTD=
EXTT0=
EXTT1=
EXTT2=
EXTT3=
EXTT4=
EXTT5=
EXTT6=
EXTT7=
PLAYORDER=
